HIERARCHY
ROOT root
{
	OFFSET 0.000000 0.000000 0.000000
	CHANNELS 6 Xposition Yposition Zposition Zrotation Yrotation Xrotation
	JOINT lhip
	{
		OFFSET 0.058581 -0.082280 -0.017664
		CHANNELS 3 Zrotation Yrotation Xrotation
		JOINT lknee
		{
			OFFSET 0.043451 -0.386469 0.008037
			CHANNELS 3 Zrotation Yrotation Xrotation
			JOINT lankle
			{
				OFFSET -0.014790 -0.426874 -0.037428
				CHANNELS 3 Zrotation Yrotation Xrotation
				JOINT ltoe
				{
					OFFSET 0.041054 -0.060286 0.122042
					CHANNELS 3 Zrotation Yrotation Xrotation
					End Site
					{
						OFFSET 0.000000 0.000000 0.000000
					}
				}
			}
		}
	}
	JOINT rhip
	{
		OFFSET -0.060310 -0.090513 -0.013543
		CHANNELS 3 Zrotation Yrotation Xrotation
		JOINT rknee
		{
			OFFSET -0.043257 -0.383688 -0.004843
			CHANNELS 3 Zrotation Yrotation Xrotation
			JOINT rankle
			{
				OFFSET 0.019056 -0.420046 -0.034562
				CHANNELS 3 Zrotation Yrotation Xrotation
				JOINT rtoe
				{
					OFFSET -0.034840 -0.062106 0.130323
					CHANNELS 3 Zrotation Yrotation Xrotation
					End Site
					{
						OFFSET 0.000000 0.000000 0.000000
					}
				}
			}
		}
	}
	JOINT lowerback
	{
		OFFSET 0.004439 0.124404 -0.038385
		CHANNELS 3 Zrotation Yrotation Xrotation
		JOINT upperback
		{
			OFFSET 0.004488 0.137956 0.026820
			CHANNELS 3 Zrotation Yrotation Xrotation
			JOINT chest
			{
				OFFSET -0.002265 0.056032 0.002855
				CHANNELS 3 Zrotation Yrotation Xrotation
				JOINT lowerneck
				{
					OFFSET -0.013390 0.211636 -0.033468
					CHANNELS 3 Zrotation Yrotation Xrotation
					JOINT upperneck
					{
						OFFSET 0.010113 0.088937 0.050410
						CHANNELS 3 Zrotation Yrotation Xrotation
						End Site
						{
							OFFSET 0.000000 0.000000 0.000000
						}
					}
				}
				JOINT lclavicle
				{
					OFFSET 0.071702 0.114000 -0.018898
					CHANNELS 3 Zrotation Yrotation Xrotation
					JOINT lshoulder
					{
						OFFSET 0.122921 0.045205 -0.019046
						CHANNELS 3 Zrotation Yrotation Xrotation
						JOINT lelbow
						{
							OFFSET 0.255332 -0.015649 -0.022946
							CHANNELS 3 Zrotation Yrotation Xrotation
							JOINT lwrist
							{
								OFFSET 0.265709 0.012698 -0.007375
								CHANNELS 3 Zrotation Yrotation Xrotation
								End Site
								{
									OFFSET 0.000000 0.000000 0.000000
								}
							}
						}
					}
				}
				JOINT rclavicle
				{
					OFFSET -0.082954 0.112472 -0.023707
					CHANNELS 3 Zrotation Yrotation Xrotation
					JOINT rshoulder
					{
						OFFSET -0.113228 0.046853 -0.008472
						CHANNELS 3 Zrotation Yrotation Xrotation
						JOINT relbow
						{
							OFFSET -0.260127 -0.014369 -0.031269
							CHANNELS 3 Zrotation Yrotation Xrotation
							JOINT rwrist
							{
								OFFSET -0.269108 0.006794 -0.006027
								CHANNELS 3 Zrotation Yrotation Xrotation
								End Site
								{
									OFFSET 0.000000 0.000000 0.000000
								}
							}
						}
					}
				}
			}
		}
	}
}
MOTION
Frames: 7
Frame Time: 0.033333
0.732997 0.700043 1.332069 -86.105525 0.207390 88.363007 0.121836 3.939125 -8.384533 1.358397 3.610396 -4.504234 -6.382540 13.602157 41.826611 0.000000 -0.000000 0.000000 2.194823 -8.179281 -11.314906 -0.797205 -2.307829 -2.009353 6.264276 -13.743388 43.292007 0.000000 -0.000000 0.000000 1.490361 2.135384 12.856360 -1.030417 -6.754177 -3.734549 4.292895 -0.149223 -1.994772 -9.766610 3.150848 12.446795 12.477120 -4.486931 -22.428577 26.581345 -29.752750 -19.888545 43.379427 -10.258842 -47.388855 8.906786 -8.031428 -47.981353 3.497140 -19.356699 -4.219354 -33.097401 31.251129 -15.962349 -28.428322 11.667141 -51.327223 -20.311746 15.278536 -44.855623 -5.777637 12.957631 6.450393 
0.706270 0.697277 1.306259 -85.916466 -0.308660 86.738662 -0.518278 3.805123 -9.394497 0.601661 3.311974 -2.844767 -8.192231 12.552300 39.133313 0.000000 -0.000000 0.000000 0.863099 -8.728762 -12.195518 -0.960846 -2.321079 -2.250309 6.630773 -13.741067 41.914580 0.000000 -0.000000 0.000000 2.096902 2.350170 14.521200 -1.161786 -6.510483 -5.406730 4.264678 0.137881 -0.885380 -10.108822 2.881355 13.205219 12.316692 -4.365738 -22.668491 27.362753 -28.022682 -21.022474 43.315506 -13.388651 -47.425862 8.827351 -8.911502 -46.280279 1.766932 -18.261752 -3.157377 -33.653542 30.756206 -16.597265 -31.122738 13.569962 -51.136714 -19.182057 16.761415 -42.078063 -4.487001 12.887303 8.150291 
0.677925 0.694749 1.269561 -85.461642 -0.952204 85.731165 -1.472758 2.834743 -10.214653 0.076795 2.127416 -2.389746 -9.626727 11.173519 36.487500 0.000000 -0.000000 0.000000 -0.841814 -8.902488 -13.310726 -0.806795 -0.711289 -1.124502 7.585583 -12.642430 41.150024 0.000000 -0.000000 0.000000 2.788116 2.965306 14.404580 -1.192346 -6.047039 -5.304375 4.087642 0.258730 -0.682843 -10.564500 2.475169 14.659291 11.916781 -4.314729 -22.835379 27.719356 -25.890314 -21.596318 42.932462 -15.308527 -46.851582 9.983971 -10.155423 -45.043635 1.876521 -18.067359 -3.493704 -34.072508 29.500316 -16.913479 -34.234976 14.863576 -51.561974 -19.119325 17.344304 -41.277478 -4.161537 13.142786 8.154566 
0.646855 0.692569 1.222600 -84.334185 -1.274187 84.519317 -2.139140 2.101308 -10.378989 -0.482636 0.352560 -1.737693 -10.432132 9.862362 32.880567 0.000000 -0.000000 0.000000 -2.183244 -8.621526 -13.401266 -1.337950 0.185310 1.260986 7.182420 -12.385362 40.019690 0.000000 -0.000000 0.000000 3.417771 3.015405 13.761339 -1.053005 -5.650177 -5.078586 3.609670 0.436776 -0.568714 -10.751025 1.158766 16.283838 11.280096 -4.581618 -21.981449 27.427023 -22.984307 -21.366862 41.927735 -17.216637 -46.575031 12.961418 -12.720327 -46.151152 1.930509 -17.130028 -5.462686 -33.721608 27.740200 -16.869832 -36.159703 16.375522 -52.425665 -21.086239 18.311473 -43.489190 -4.024486 12.724952 6.065355 
0.612731 0.690647 1.166222 -83.100148 -1.385456 82.963825 -2.072426 0.496932 -10.117164 -1.629289 -2.206046 1.556396 -9.564004 8.818343 28.832728 0.000000 -0.000000 0.000000 -3.327634 -7.439763 -12.422084 -1.481005 2.059842 5.626830 6.618119 -11.645172 39.381912 0.000000 -0.000000 0.000000 3.825370 3.481256 12.650383 -1.073084 -5.233226 -4.579564 3.113273 0.890654 -0.453458 -10.545421 -0.351127 18.637878 10.935434 -4.940433 -21.852312 25.810684 -20.104920 -21.187914 40.443163 -18.764208 -45.879998 17.385442 -19.668976 -47.871669 0.783251 -15.625939 -7.029851 -32.135224 25.305726 -15.827986 -35.970148 16.627249 -52.236135 -25.504988 22.193407 -46.555087 -3.431068 11.699068 3.933769 
0.578877 0.688684 1.100302 -81.802774 -1.402004 80.946847 -1.691761 -3.107219 -10.442210 -4.039526 -5.251053 9.708774 -6.818302 7.571838 28.985782 0.000000 -0.000000 0.000000 -4.045801 -6.118410 -11.902763 -0.953079 2.569517 14.307511 5.901788 -11.516042 39.411743 0.000000 -0.000000 0.000000 3.719704 3.300569 12.571622 -0.767888 -4.502197 -5.108517 2.552283 2.119702 0.219502 -9.738295 -1.887250 20.789886 10.683518 -5.970315 -21.900140 23.623084 -14.739222 -21.538617 36.059129 -20.997774 -42.569316 25.481218 -31.167493 -48.342725 3.630522 -15.405316 -9.343743 -29.479453 20.794304 -14.176745 -33.926785 16.087841 -50.153690 -32.640154 28.998557 -49.991941 -4.576629 11.384709 1.556409 
0.546266 0.687136 1.024044 -80.280987 -1.268025 77.961807 -1.727214 -5.406282 -11.320872 -11.012088 -10.731409 26.758747 -0.563102 9.942354 4.541405 0.000000 -0.000000 0.000000 -4.680422 -6.322922 -11.789983 2.355682 2.750470 31.342026 2.245820 -13.298790 5.335702 0.000000 -0.000000 0.000000 4.160311 2.814628 14.509607 -1.307818 -3.345221 -7.988090 1.603187 3.054263 3.734216 -7.604814 -4.838965 20.293142 9.805932 -7.041469 -20.572624 21.960228 -2.878115 -21.122617 28.110790 -26.092743 -40.418602 41.073067 -43.663152 -53.319656 9.437154 -17.286245 -8.217575 -27.642056 11.808268 -13.294149 -26.370600 16.784300 -46.874541 -45.106878 36.515612 -53.366850 -9.862882 13.500198 -2.705784 
